<?xml version="1.0" standalone="no"?>
<!DOCTYPE svg PUBLIC "-//W3C//DTD SVG 20010904//EN"
 "http://www.w3.org/TR/2001/REC-SVG-20010904/DTD/svg10.dtd">
<svg version="1.0" xmlns="http://www.w3.org/2000/svg"
 width="512.000000pt" height="512.000000pt" viewBox="0 0 512.000000 512.000000"
 preserveAspectRatio="xMidYMid meet">

<g transform="translate(0.000000,512.000000) scale(0.100000,-0.100000)"
fill="#000000" stroke="none">
<path d="M570 4178 c-33 -17 -51 -35 -67 -68 l-23 -44 0 -1413 0 -1413 2080 0
2080 0 0 1413 0 1413 -22 44 c-17 33 -35 51 -68 68 l-44 22 -1946 0 -1946 0
-44 -22z m1351 -2241 c41 -28 79 -82 79 -113 0 -23 3 -24 78 -24 l78 0 12 44
c14 52 66 102 117 112 85 16 166 -33 187 -112 l12 -44 78 0 c75 0 78 1 78 24
0 63 86 136 160 136 74 0 160 -73 160 -136 0 -23 3 -24 80 -24 77 0 80 1 80
24 0 63 86 136 160 136 74 0 160 -73 160 -136 0 -22 4 -24 48 -24 163 0 272
-109 272 -272 l0 -48 -1200 0 -1200 0 0 48 c0 27 7 72 16 101 30 103 132 171
256 171 44 0 48 2 48 24 0 63 86 136 160 136 32 0 58 -7 81 -23z"/>
</g>
</svg>
