<?xml version="1.0" encoding="UTF-8"?>
<svg width="700pt" height="700pt" version="1.1" viewBox="0 0 700 700" xmlns="http://www.w3.org/2000/svg">
 <g>
  <path d="m437.5 105h-175c-4.8359 0-8.75-3.9141-8.75-8.75v-52.5c0-4.8359 3.9141-8.75 8.75-8.75h175c4.8359 0 8.75 3.9141 8.75 8.75v52.5c0 4.8359-3.9141 8.75-8.75 8.75zm-166.25-17.5h157.5v-35h-157.5z"/>
  <path d="m385 105c-4.8359 0-8.75-3.9141-8.75-8.75v-52.5c0-4.8359 3.9141-8.75 8.75-8.75s8.75 3.9141 8.75 8.75v52.5c0 4.8359-3.9141 8.75-8.75 8.75z"/>
  <path d="m315 105c-4.8359 0-8.75-3.9141-8.75-8.75v-52.5c0-4.8359 3.9141-8.75 8.75-8.75s8.75 3.9141 8.75 8.75v52.5c0 4.8359-3.9141 8.75-8.75 8.75z"/>
  <path d="m166.24 210h-52.5c-4.8359 0-8.75-3.9141-8.75-8.75s3.9141-8.75 8.75-8.75h52.5c4.8359 0 8.75 3.9141 8.75 8.75s-3.9141 8.75-8.75 8.75z"/>
  <path d="m166.24 280h-52.5c-4.8359 0-8.75-3.9141-8.75-8.75s3.9141-8.75 8.75-8.75h52.5c4.8359 0 8.75 3.9141 8.75 8.75s-3.9141 8.75-8.75 8.75z"/>
  <path d="m385 525c-4.8359 0-8.75-3.9141-8.75-8.75v-52.5c0-4.8359 3.9141-8.75 8.75-8.75s8.75 3.9141 8.75 8.75v52.5c0 4.8359-3.9141 8.75-8.75 8.75z"/>
  <path d="m315 525c-4.8359 0-8.75-3.9141-8.75-8.75v-52.5c0-4.8359 3.9141-8.75 8.75-8.75s8.75 3.9141 8.75 8.75v52.5c0 4.8359-3.9141 8.75-8.75 8.75z"/>
  <path d="m420 131.25h-140c-4.8359 0-8.75-3.9141-8.75-8.75v-26.25c0-4.8359 3.9141-8.75 8.75-8.75h140c4.8359 0 8.75 3.9141 8.75 8.75v26.25c0 4.8359-3.9141 8.75-8.75 8.75zm-131.25-17.5h122.5v-8.75h-122.5z"/>
  <path d="m437.5 525h-175c-4.8359 0-8.75-3.9141-8.75-8.75v-52.5c0-4.8359 3.9141-8.75 8.75-8.75h175c4.8359 0 8.75 3.9141 8.75 8.75v52.5c0 4.8359-3.9141 8.75-8.75 8.75zm-166.25-17.5h157.5v-35h-157.5z"/>
  <path d="m420 472.5h-140c-4.8359 0-8.75-3.9141-8.75-8.75v-26.25c0-4.8359 3.9141-8.75 8.75-8.75h140c4.8359 0 8.75 3.9141 8.75 8.75v26.25c0 4.8359-3.9141 8.75-8.75 8.75zm-131.25-17.5h122.5v-8.75h-122.5z"/>
  <path d="m402.5 297.5c-4.8359 0-8.75-3.9141-8.75-8.75v-157.5h-87.5v52.508c0 4.8359-3.9141 8.75-8.75 8.75s-8.75-3.9141-8.75-8.75v-61.258c0-4.8359 3.9141-8.75 8.75-8.75h105c4.8359 0 8.75 3.9141 8.75 8.75v166.25c0 4.8359-3.9141 8.75-8.75 8.75z"/>
  <path d="m402.5 446.25h-105c-4.8359 0-8.75-3.9141-8.75-8.75v-148.75c0-4.8359 3.9141-8.75 8.75-8.75s8.75 3.9141 8.75 8.75v140h87.5v-35c0-4.8359 3.9141-8.75 8.75-8.75s8.75 3.9141 8.75 8.75v43.75c0 4.8359-3.9141 8.75-8.75 8.75z"/>
  <path d="m586.25 437.5h-52.5c-4.8359 0-8.75-3.9141-8.75-8.75v-175c0-4.8359 3.9141-8.75 8.75-8.75h52.5c4.8359 0 8.75 3.9141 8.75 8.75v175c0 4.8359-3.9141 8.75-8.75 8.75zm-43.75-17.5h35v-157.5h-35z"/>
  <path d="m533.75 420h-26.25c-4.8359 0-8.75-3.9141-8.75-8.75v-140c0-4.8359 3.9141-8.75 8.75-8.75h26.25c4.8359 0 8.75 3.9141 8.75 8.75v140c0 4.8359-3.9141 8.75-8.75 8.75zm-17.5-17.5h8.75v-122.5h-8.75z"/>
  <path d="m507.5 402.5h-105c-4.8359 0-8.75-3.9141-8.75-8.75s3.9141-8.75 8.75-8.75h96.25v-87.5h-96.25c-4.8359 0-8.75-3.9141-8.75-8.75s3.9141-8.75 8.75-8.75h105c4.8359 0 8.75 3.9141 8.75 8.75v105c0 4.8359-3.9141 8.75-8.75 8.75z"/>
  <path d="m402.5 402.5c-2.6836 0-5.3516-1.2383-7.0586-3.582-26.488-36.152-26.574-74.836-0.25391-114.97 2.6328-4.0586 8.0664-5.1523 12.117-2.5117 4.0352 2.6484 5.1602 8.0742 2.5117 12.117-22.215 33.863-22.301 64.949-0.25391 95.027 2.8555 3.8984 2.0156 9.3711-1.8789 12.227-1.5781 1.1484-3.3906 1.6953-5.1836 1.6953z"/>
  <path d="m166.25 332.5h-52.5c-4.8359 0-8.75-3.9141-8.75-8.75v-175c0-4.8359 3.9141-8.75 8.75-8.75h52.5c4.8359 0 8.75 3.9141 8.75 8.75v175c0 4.8359-3.9141 8.75-8.75 8.75zm-43.75-17.5h35v-157.5h-35z"/>
  <path d="m192.5 315h-26.25c-4.8359 0-8.75-3.9141-8.75-8.75v-140c0-4.8359 3.9141-8.75 8.75-8.75h26.25c4.8359 0 8.75 3.9141 8.75 8.75v140c0 4.8359-3.9141 8.75-8.75 8.75zm-17.5-17.5h8.75v-122.5h-8.75z"/>
  <path d="m297.5 297.5h-105c-4.8359 0-8.75-3.9141-8.75-8.75v-105c0-4.8359 3.9141-8.75 8.75-8.75h105c4.8359 0 8.75 3.9141 8.75 8.75s-3.9141 8.75-8.75 8.75h-96.25v87.5h96.25c4.8359 0 8.75 3.9141 8.75 8.75s-3.9141 8.75-8.75 8.75z"/>
  <path d="m297.49 297.5c-1.793 0-3.6055-0.54688-5.1602-1.6914-3.8984-2.8555-4.7422-8.332-1.8867-12.227 22.047-30.078 21.961-61.164-0.25391-95.027-2.6484-4.043-1.5312-9.4688 2.5117-12.117 4.0352-2.6484 9.4688-1.5312 12.117 2.5117 26.328 40.137 26.242 78.816-0.25391 114.97-1.7266 2.3398-4.3828 3.5781-7.0742 3.5781z"/>
  <path d="m586.25 385h-52.5c-4.8359 0-8.75-3.9141-8.75-8.75s3.9141-8.75 8.75-8.75h52.5c4.8359 0 8.75 3.9141 8.75 8.75s-3.9141 8.75-8.75 8.75z"/>
  <path d="m586.25 315h-52.5c-4.8359 0-8.75-3.9141-8.75-8.75s3.9141-8.75 8.75-8.75h52.5c4.8359 0 8.75 3.9141 8.75 8.75s-3.9141 8.75-8.75 8.75z"/>
 </g>
</svg>
